<svg id="Layer_1" data-name="Layer 1" xmlns="http://www.w3.org/2000/svg" viewBox="0 0 100 100"><defs><style>.cls-1{fill:none;stroke:#fff;stroke-miterlimit:10;stroke-width:2px;}.cls-2{fill:#fff;}</style></defs><title>S1</title><circle class="cls-1" cx="50" cy="50" r="48.65"/><path class="cls-2" d="M68.55,25.85l-36.47-.47a6.15,6.15,0,0,0-6.23,6.07L25.38,67.92a6.15,6.15,0,0,0,6.07,6.23l36.48,0.47a6.16,6.16,0,0,0,6.23-6.07l0.47-36.47a6.15,6.15,0,0,0-6.07-6.23h0Zm-18.46,17a7.15,7.15,0,1,1-7.24,7.06,7.16,7.16,0,0,1,7.24-7.06h0Zm18.42,23a3.26,3.26,0,0,1-3.32,3l-30.76-.39a3.37,3.37,0,0,1-3.36-3.12L31.28,50A3.38,3.38,0,0,1,34.72,47l1.72,0a1.13,1.13,0,0,1,1.1,1.29,11.94,11.94,0,0,0-.13,1.56,12.6,12.6,0,0,0,25.19.32,12,12,0,0,0-.09-1.57,1.12,1.12,0,0,1,1.13-1.26l1.83,0a3.27,3.27,0,0,1,3.24,3.14Zm0.36-28.36h0a3.08,3.08,0,0,1-3.11,3l-2.92,0a3.08,3.08,0,0,1-3-3.11l0-2.92a3.08,3.08,0,0,1,3.11-3l2.92,0a3.08,3.08,0,0,1,3,3.11Zm0,0"/></svg>